<svg width="128" height="128" viewBox="0 0 128 128" fill="none" xmlns="http://www.w3.org/2000/svg">
<path fill-rule="evenodd" clip-rule="evenodd" d="M90.4911 57.2822C90.1211 52.4922 88.9951 47.8732 87.4291 43.3482C84.1851 33.2442 78.9791 24.3022 71.6461 16.6082C69.7921 14.6622 67.7301 12.8792 66.4371 10.4572C65.6191 8.92518 64.8401 7.37218 64.0431 5.82818L63.5381 4.55518C63.4531 4.84718 63.3991 4.95118 63.3961 5.05618C63.3311 7.57318 61.9051 9.28018 60.1291 10.8732C58.1321 12.6662 56.2731 14.6122 54.3541 16.4912L48.4531 24.2542C46.8611 27.1792 45.2711 30.1042 43.6811 33.0292L40.4911 41.6462L40.3951 41.7802C38.6391 47.5482 37.7731 53.4782 37.3471 59.4682C37.1871 61.7192 37.3691 64.0032 37.4961 66.2662C37.6771 69.5012 38.2391 72.6812 39.0821 75.8112C42.1441 87.1832 48.3581 96.6162 56.8531 104.63C58.4321 106.119 60.0521 107.473 61.7001 108.89C61.9821 107.925 62.2071 106.96 62.4631 105.995C62.7191 105.034 62.9781 104.078 63.1511 103.114C62.9771 104.078 62.7821 105.034 62.5891 105.995L61.7631 108.89L62.5011 111.391L63.1851 115.275L63.5111 119.328C63.5081 120.151 63.4751 120.976 63.5251 121.798C63.5371 122.008 63.8131 122.202 63.9671 122.404L65.3431 122.887L66.7771 123.445L66.5311 119.842L66.5201 116.294L67.0151 110.889L67.3741 109.712L68.4011 107.892C69.6691 106.872 71.0301 105.946 72.1851 104.811C74.2751 102.757 76.3601 100.677 78.2301 98.4282C80.6641 95.5131 82.7424 92.3186 84.4211 88.9122C85.5431 86.6282 86.5991 84.2982 87.4731 81.9112C88.2431 79.8072 88.7201 77.5962 89.3271 75.4322C89.3811 75.2762 89.4531 75.1232 89.4871 74.9642C90.7411 69.1232 90.9521 63.2232 90.4911 57.2822ZM66.8921 106.657L66.0871 104.894L66.8921 106.657L68.0751 107.667L66.8921 106.657Z" fill="#4FAA41"/>
</svg>
