<svg width="70" height="63" viewBox="0 0 70 63" fill="none" xmlns="http://www.w3.org/2000/svg">
<g clip-path="url(#clip0_1305_7990)">
<path d="M34.9999 37.3789C38.4456 37.3789 41.239 34.5855 41.239 31.1398C41.239 27.694 38.4456 24.9006 34.9999 24.9006C31.5541 24.9006 28.7607 27.694 28.7607 31.1398C28.7607 34.5855 31.5541 37.3789 34.9999 37.3789Z" fill="#61DAFB"/>
<path d="M35.0017 43.9226C53.4912 43.9226 68.48 38.1997 68.48 31.14C68.48 24.0804 53.4912 18.3574 35.0017 18.3574C16.5122 18.3574 1.52344 24.0804 1.52344 31.14C1.52344 38.1997 16.5122 43.9226 35.0017 43.9226Z" stroke="#61DAFB" stroke-width="3.04348"/>
<path d="M23.931 37.5314C33.1758 53.5438 45.6264 63.6629 51.7402 60.1331C57.8541 56.6033 55.3159 40.7612 46.0712 24.7488C36.8264 8.73636 24.3758 -1.38278 18.262 2.14704C12.1481 5.67686 14.6863 21.519 23.931 37.5314Z" stroke="#61DAFB" stroke-width="3.04348"/>
<path d="M23.9303 24.7486C14.6855 40.761 12.1474 56.6031 18.2612 60.133C24.3751 63.6628 36.8257 53.5436 46.0704 37.5312C55.3152 21.5188 57.8533 5.67672 51.7395 2.1469C45.6257 -1.38292 33.1751 8.73622 23.9303 24.7486Z" stroke="#61DAFB" stroke-width="3.04348"/>
</g>
<defs>
<clipPath id="clip0_1305_7990">
<rect width="70" height="62.2802" fill="white"/>
</clipPath>
</defs>
</svg>
