<svg width="613" height="810" viewBox="0 0 613 810" fill="none" xmlns="http://www.w3.org/2000/svg">
<path d="M423.888 205.193C424.076 208.386 421.775 220.455 420.601 226.09C415.905 224.212 410.504 229.847 404.165 234.073C399.093 237.454 385.303 246.439 379.042 250.509C376.85 251.291 371.434 252.857 367.302 252.857C362.136 252.857 342.179 259.666 317.055 265.066C289.349 273.988 272.444 279.154 263.522 283.145C254.599 287.137 241.92 286.433 215.154 295.12C188.387 303.807 157.159 334.801 133.444 354.758C109.73 374.716 86.9546 410.875 77.5627 429.189C68.1708 447.503 37.1777 505.967 24.9682 530.151C12.7588 554.336 4.30622 585.563 1.01907 602.234C-2.26809 618.905 3.36703 648.489 4.30622 656.472C5.24541 664.455 10.8805 666.803 13.9329 671.499C16.9852 676.195 15.8113 675.725 17.9244 683.004C20.0376 690.283 27.0815 694.744 29.8991 698.735C32.7166 702.727 32.4818 705.31 35.0646 714.936C37.6473 724.563 41.4041 721.511 46.3348 728.789C50.2794 734.612 54.7092 743.269 56.4311 746.869C56.118 749.843 53.3318 760.299 44.6912 778.332C33.8906 800.872 30.6034 814.021 25.4379 826.7C20.2724 839.379 13.6981 853.466 3.36713 889.156C1.01917 922.027 57.84 943.628 96.8162 961.003C127.997 974.903 156.768 986.518 167.255 990.588L173.36 978.378C175.864 977.283 181.061 975.749 181.813 978.378C182.752 981.665 182.282 990.588 176.647 1014.07C172.139 1032.85 180.717 1049.13 185.569 1054.92H537.06C536.684 1041.77 545.356 1006.55 549.739 990.588V978.378C549.739 976.03 554.67 963.821 554.2 955.368C553.731 946.916 554.67 951.142 558.427 946.211C562.183 941.28 561.009 923.201 558.427 914.044C564.531 909.348 568.053 894.556 568.053 893.382C568.053 892.208 569.227 891.504 571.34 888.451C573.454 885.399 575.567 881.407 575.567 879.764C575.567 878.12 578.619 877.651 580.967 875.772C583.315 873.894 585.193 866.85 582.611 860.041C587.072 848.536 578.619 838.674 575.567 833.509C573.125 829.376 563.436 819.264 558.896 814.725L557.487 811.907V805.568C555.609 795.472 551.758 774.199 551.383 769.879C550.913 764.479 541.286 725.972 540.347 719.398C539.596 714.138 542.695 700.144 544.339 693.805C546.295 679.795 550.913 646.798 553.731 626.888C563.592 619.139 565.94 587.207 568.053 574.998C569.744 565.23 574.236 544.944 576.271 536.021C581.985 509.881 594.069 455.486 596.698 447.033C599.986 436.468 601.394 423.084 598.577 402.422C595.759 381.76 572.045 355.932 564.297 346.775C558.098 339.45 541.521 325.565 534.008 319.539L526.494 302.399C532.051 291.52 544.386 268.165 549.27 261.779C569.932 246.752 580.732 218.576 583.08 206.836C584.254 206.367 588.715 201.906 590.359 198.619C604.212 189.227 610.082 163.164 612.195 150.016C614.308 136.867 611.725 96.482 610.552 89.9077C601.864 47.1747 581.672 30.2694 570.636 19.9383C559.601 9.60724 534.712 1.38942 522.738 0.450236C510.763 -0.48895 492.684 2.32861 475.309 10.0769C457.934 17.8252 437.741 35.9045 431.636 45.0616C425.532 54.2187 420.836 63.1409 415.905 72.5328C410.974 81.9247 400.643 104.23 397.356 127.006C394.069 149.781 405.809 169.973 408.861 176.078C411.913 182.183 411.444 182.887 414.496 186.644C417.549 190.401 419.192 191.81 420.601 194.862C422.01 197.914 423.653 201.201 423.888 205.193Z" fill="#1F1F1E"/>
</svg>
